<svg width="25" height="26" viewBox="0 0 25 26" fill="none" xmlns="http://www.w3.org/2000/svg">
<path fill-rule="evenodd" clip-rule="evenodd" d="M17.4508 25.5528C19.2177 25.5528 20.9122 24.8509 22.1615 23.6016C23.4109 22.3522 24.1128 20.6577 24.1128 18.8909C24.1128 17.124 23.4109 15.4295 22.1615 14.1801C20.9122 12.9308 19.2177 12.2289 17.4508 12.2289C15.6839 12.2289 13.9894 12.9308 12.7401 14.1801C11.4907 15.4295 10.7888 17.124 10.7888 18.8909C10.7888 20.6577 11.4907 22.3522 12.7401 23.6016C13.9894 24.8509 15.6839 25.5528 17.4508 25.5528ZM17.4508 14.6599C17.6114 14.6599 17.7655 14.7237 17.879 14.8373C17.9926 14.9509 18.0564 15.1049 18.0564 15.2655V18.2852H21.0761C21.2367 18.2852 21.3908 18.349 21.5044 18.4626C21.6179 18.5762 21.6817 18.7302 21.6817 18.8909C21.6817 19.0515 21.6179 19.2055 21.5044 19.3191C21.3908 19.4327 21.2367 19.4965 21.0761 19.4965H18.0564V22.5162C18.0564 22.6768 17.9926 22.8308 17.879 22.9444C17.7655 23.058 17.6114 23.1218 17.4508 23.1218C17.2902 23.1218 17.1361 23.058 17.0225 22.9444C16.909 22.8308 16.8452 22.6768 16.8452 22.5162V19.4965H13.8255C13.6648 19.4965 13.5108 19.4327 13.3972 19.3191C13.2836 19.2055 13.2198 19.0515 13.2198 18.8909C13.2198 18.7302 13.2836 18.5762 13.3972 18.4626C13.5108 18.349 13.6648 18.2852 13.8255 18.2852H16.8452V15.2655C16.8452 15.1049 16.909 14.9509 17.0225 14.8373C17.1361 14.7237 17.2902 14.6599 17.4508 14.6599Z" fill="black"/>
<path d="M1.7041 20.8592C1.7041 21.6623 2.02314 22.4325 2.59103 23.0004C3.15892 23.5683 3.92915 23.8873 4.73227 23.8873H10.3162M1.7041 20.8592C1.7041 20.056 2.02314 19.2858 2.59103 18.7179C3.15892 18.15 3.92915 17.831 4.73227 17.831H8.75368M1.7041 20.8592V5.11268C1.7041 4.14894 2.08695 3.22467 2.76842 2.5432C3.44989 1.86173 4.37416 1.47888 5.3379 1.47888H18.6618C18.9831 1.47888 19.2912 1.6065 19.5183 1.83365C19.7455 2.06081 19.8731 2.3689 19.8731 2.69015V10.5573" stroke="black" stroke-width="1.5" stroke-linecap="round" stroke-linejoin="round"/>
</svg>
