<svg width="20" height="16" viewBox="0 0 20 16" fill="none" xmlns="http://www.w3.org/2000/svg">
<path d="M18.5625 7.84191e-07H13.6469C12.592 7.84191e-07 11.5607 0.30293 10.6734 0.874415L9.625 1.54688L8.57656 0.874415C7.69014 0.30304 6.65774 -0.00056315 5.60312 7.84191e-07H0.6875C0.307227 7.84191e-07 0 0.307227 0 0.687501V12.8906C0 13.2709 0.307227 13.5781 0.6875 13.5781H5.60312C6.65801 13.5781 7.68926 13.8811 8.57656 14.4525L9.53047 15.067C9.5584 15.0842 9.59062 15.0949 9.62285 15.0949C9.65508 15.0949 9.6873 15.0863 9.71523 15.067L10.6691 14.4525C11.5586 13.8811 12.592 13.5781 13.6469 13.5781H18.5625C18.9428 13.5781 19.25 13.2709 19.25 12.8906V0.687501C19.25 0.307227 18.9428 7.84191e-07 18.5625 7.84191e-07ZM5.60312 12.0313H1.54688V1.54688H5.60312C6.36367 1.54688 7.10273 1.76387 7.74082 2.17422L8.78926 2.84668L8.9375 2.94336V12.8691C7.91484 12.3191 6.77187 12.0313 5.60312 12.0313ZM17.7031 12.0313H13.6469C12.4781 12.0313 11.3352 12.3191 10.3125 12.8691V2.94336L10.4607 2.84668L11.5092 2.17422C12.1473 1.76387 12.8863 1.54688 13.6469 1.54688H17.7031V12.0313ZM7.15215 4.29688H3.16035C3.07656 4.29688 3.00781 4.36992 3.00781 4.45801V5.42481C3.00781 5.51289 3.07656 5.58594 3.16035 5.58594H7.15C7.23379 5.58594 7.30254 5.51289 7.30254 5.42481V4.45801C7.30469 4.36992 7.23594 4.29688 7.15215 4.29688ZM11.9453 4.45801V5.42481C11.9453 5.51289 12.0141 5.58594 12.0979 5.58594H16.0875C16.1713 5.58594 16.24 5.51289 16.24 5.42481V4.45801C16.24 4.36992 16.1713 4.29688 16.0875 4.29688H12.0979C12.0141 4.29688 11.9453 4.36992 11.9453 4.45801ZM7.15215 7.30469H3.16035C3.07656 7.30469 3.00781 7.37774 3.00781 7.46582V8.43262C3.00781 8.5207 3.07656 8.59375 3.16035 8.59375H7.15C7.23379 8.59375 7.30254 8.5207 7.30254 8.43262V7.46582C7.30469 7.37774 7.23594 7.30469 7.15215 7.30469ZM16.0896 7.30469H12.0979C12.0141 7.30469 11.9453 7.37774 11.9453 7.46582V8.43262C11.9453 8.5207 12.0141 8.59375 12.0979 8.59375H16.0875C16.1713 8.59375 16.24 8.5207 16.24 8.43262V7.46582C16.2422 7.37774 16.1734 7.30469 16.0896 7.30469Z" fill="black"/>
</svg>
