<svg width="16" height="20" viewBox="0 0 16 20" fill="none" xmlns="http://www.w3.org/2000/svg">
<path d="M1.00087 18.25C1.00087 18.664 1.33687 19 1.75087 19H12.4029C13.5659 19 14.0009 18.635 14.0009 17.4V15.955C13.8282 15.985 13.6289 16 13.4029 16H3.25087C2.65414 16 2.08184 16.2371 1.65988 16.659C1.23793 17.081 1.00087 17.6533 1.00087 18.25Z" fill="#14AE5C"/>
<path d="M1.00087 18.25C1.00087 18.664 1.33687 19 1.75087 19H12.4029C13.5659 19 14.0009 18.635 14.0009 17.4V15.955M1.00087 18.25C1.00087 17.6533 1.23793 17.081 1.65988 16.659C2.08184 16.2371 2.65414 16 3.25087 16H13.4029C13.6289 16 13.8282 15.985 14.0009 15.955M1.00087 18.25V4.2C1.00087 3.064 0.928873 1.811 2.09287 1.218C2.52087 1 3.08087 1 4.20087 1H13.4009C14.6369 1 15.0009 1.437 15.0009 2.6V14.4C15.0009 15.395 14.7189 15.825 14.0009 15.955" stroke="black" stroke-width="1.5" stroke-linecap="round" stroke-linejoin="round"/>
<path d="M5.60107 8.323L6.98007 9.898C7.00981 9.93141 7.04663 9.95775 7.08785 9.97509C7.12908 9.99243 7.17365 10.0003 7.21832 9.99822C7.263 9.99611 7.30663 9.98404 7.34604 9.9629C7.38544 9.94175 7.41962 9.91206 7.44607 9.876L10.2461 6" stroke="black" stroke-width="1.5" stroke-linecap="round" stroke-linejoin="round"/>
</svg>
