<svg width="24" height="24" viewBox="0 0 24 24" fill="none" xmlns="http://www.w3.org/2000/svg">
<path d="M4.9999 20.25C4.9999 20.664 5.3359 21 5.7499 21H16.4019C17.5649 21 17.9999 20.635 17.9999 19.4V17.955C17.8272 17.985 17.6279 18 17.4019 18H7.2499C6.65316 18 6.08086 18.2371 5.65891 18.659C5.23695 19.081 4.9999 19.6533 4.9999 20.25Z" fill="#EC221F"/>
<path d="M4.9999 20.25C4.9999 20.664 5.3359 21 5.7499 21H16.4019C17.5649 21 17.9999 20.635 17.9999 19.4V17.955M4.9999 20.25C4.9999 19.6533 5.23695 19.081 5.65891 18.659C6.08086 18.2371 6.65316 18 7.2499 18H17.4019C17.6279 18 17.8272 17.985 17.9999 17.955M4.9999 20.25V6.2C4.9999 5.064 4.9279 3.811 6.0919 3.218C6.5199 3 7.0799 3 8.1999 3H17.3999C18.6359 3 18.9999 3.437 18.9999 4.6V16.4C18.9999 17.395 18.7179 17.825 17.9999 17.955M9.9999 8L13.9999 12M13.9999 8L9.9999 12" stroke="black" stroke-width="1.5" stroke-linecap="round" stroke-linejoin="round"/>
</svg>
